<svg width="16" height="22" viewBox="0 0 16 22" fill="none" xmlns="http://www.w3.org/2000/svg">
<path d="M13.253 22H2.74782C2.01945 21.9994 1.32109 21.7203 0.805956 21.224C0.290817 20.7278 0.000968661 20.0549 0 19.3529L0 8.75421C0.000247264 8.75011 0.00119833 8.74608 0.00281452 8.74228C0.00425741 8.73891 0.00511328 8.73534 0.00534759 8.7317C0.00637744 8.72096 0.0084505 8.71033 0.0115395 8.69996C0.0142647 8.69054 0.0162406 8.68093 0.01745 8.67121C0.0291202 8.58997 0.0572346 8.51172 0.100197 8.44092C0.103533 8.43478 0.105904 8.4282 0.107233 8.42139C0.108565 8.41366 0.111329 8.40621 0.115395 8.39942L3.67717 3.43371V0.623867C3.67717 0.458642 3.74518 0.300164 3.86628 0.183205C3.98737 0.0662464 4.15167 0.000359185 4.32311 0L11.6766 0C11.8483 0 12.013 0.0657287 12.1344 0.182726C12.2558 0.299724 12.324 0.458407 12.324 0.623867V3.43371L15.9201 8.44933C15.9664 8.51526 15.994 8.59178 16 8.67121V19.3529C15.9991 20.0547 15.7094 20.7276 15.1944 21.2238C14.6795 21.7201 13.9813 21.9992 13.253 22ZM8.64678 9.377V20.7547H13.253C13.6387 20.7543 14.0085 20.6064 14.2812 20.3436C14.554 20.0807 14.7074 19.7244 14.7079 19.3526V9.377H8.64678ZM1.29327 9.377V19.3529C1.29372 19.7246 1.44714 20.081 1.71988 20.3438C1.99261 20.6067 2.36239 20.7545 2.7481 20.755H7.35322V9.377H1.29327ZM11.6766 4.72376L9.23164 8.13062H14.1219L11.6766 4.72376ZM4.66141 4.25152L1.87898 8.13035H7.66141L10.445 4.25152H4.66141ZM4.97101 1.24529V3.00541H11.0315V1.24529H4.97101Z" fill="#E96125"/>
</svg>
