<svg width="25" height="25" viewBox="0 0 25 25" fill="none" xmlns="http://www.w3.org/2000/svg">
<path d="M1.59911 24.0739C1.35967 24.0773 1.12267 24.0261 0.906515 23.9245C0.69036 23.8228 0.500871 23.6733 0.352764 23.4876C0.128371 23.1884 0.00501684 22.8271 0.00014977 22.4549C-0.0047173 22.0827 0.109149 21.7184 0.325643 21.4135C0.489424 21.1804 0.675168 20.9632 0.880396 20.7646L0.893032 20.7515L1.1063 20.5292C1.42498 20.1789 1.48847 19.8633 1.36827 19.2308C1.10661 17.8624 0.836324 16.4457 1.24931 14.9171C1.55214 13.7983 2.05692 12.7426 2.73943 11.8006C4.22648 9.74863 6.38693 8.49429 8.66666 8.35897C8.82076 8.34955 8.97485 8.34499 9.12895 8.34499C10.6252 8.34413 12.0863 8.79208 13.3186 9.62943C13.6659 9.03829 13.763 8.4502 13.5778 8.05672C13.3805 7.64438 12.9333 7.36584 12.4152 7.04352C11.8029 6.66159 11.1085 6.22858 10.6866 5.45073C10.3986 4.8568 10.2132 4.21961 10.138 3.56543L10.1358 3.55266V3.54505C10.0821 3.01419 9.93362 2.49688 9.69726 2.01704V2.01522C9.51019 1.71114 9.22726 1.25501 9.40016 0.749935C9.45659 0.595523 9.54788 0.455795 9.66711 0.341319C9.78633 0.226843 9.93038 0.140618 10.0884 0.0891649C10.2635 0.0285061 10.448 -0.0016417 10.6336 6.89136e-05C10.7783 0.00165016 10.9227 0.015486 11.065 0.041424C12.3543 0.164915 13.6048 0.544856 14.7412 1.15832C15.9701 1.81824 16.8978 2.91558 17.3353 4.22681C17.4235 4.53721 17.4793 4.85573 17.5017 5.17736C17.6278 4.95782 17.7806 4.69996 17.9554 4.44757C18.648 3.43904 19.5782 2.6113 20.6662 2.03534C21.7542 1.45938 22.9675 1.15238 24.2022 1.14068H24.2059C24.3856 1.14099 24.5585 1.20865 24.6896 1.32997C24.8207 1.45129 24.9002 1.6172 24.912 1.79415C25.0001 3.19701 24.6559 4.59335 23.9246 5.79958C23.1934 7.00581 22.1092 7.96547 20.8148 8.55237C21.1486 8.74394 21.4405 8.93278 21.6577 9.076C22.6218 9.65256 23.4599 10.4126 24.1233 11.3119C24.6047 12.0402 24.8981 12.8736 24.9778 13.7395C25.0576 14.6054 24.9214 15.4774 24.581 16.2794C24.5413 16.372 24.4817 16.4551 24.4064 16.5228C24.3311 16.5905 24.2417 16.6413 24.1446 16.6717C24.0752 16.6919 24.0033 16.7022 23.931 16.7021C23.799 16.7021 23.6696 16.6658 23.5574 16.5972C22.8169 16.1445 22.033 15.765 21.217 15.4641L20.8916 15.351C20.118 15.1415 19.396 14.778 18.7699 14.2831C18.36 13.859 18.0465 13.3535 17.8503 12.8004L17.8481 12.7952C17.5239 12.0508 17.3344 11.6969 16.9981 11.6668C16.92 11.6588 16.8415 11.6548 16.763 11.6549C16.3355 11.6675 15.9127 11.7465 15.5101 11.8891C16.2857 13.1135 16.6941 14.5296 16.6881 15.9735L16.6822 16.2493C16.6733 16.4685 16.6569 16.6677 16.6326 16.8574C16.4779 18.0386 16.0377 19.1658 15.349 20.144C15.308 20.2394 15.2463 20.3248 15.1684 20.3942C14.1372 21.7545 12.7058 22.7677 11.0694 23.2955C11.0567 23.3 11.0432 23.304 11.0299 23.3082L10.9963 23.3189C10.9455 23.34 10.8926 23.3557 10.8385 23.3657C10.0902 23.5778 9.31544 23.685 8.53691 23.6841C8.10351 23.6839 7.67077 23.651 7.24248 23.5856C6.60305 23.4895 5.97725 23.3198 5.3779 23.0799C5.25061 23.0282 5.12918 22.9713 4.99481 22.9078C4.79993 22.7919 4.58181 22.7192 4.35561 22.6949C4.32965 22.6949 4.30371 22.6965 4.27795 22.6998C3.9946 22.7785 3.73617 22.927 3.52687 23.1313L3.42301 23.2182L3.41685 23.2234C3.08102 23.5347 2.69039 23.7828 2.26419 23.9556C2.05129 24.0334 1.82613 24.0734 1.59911 24.0739ZM4.12631 12.306C4.05235 12.3972 3.9753 12.4972 3.89054 12.6134C3.30728 13.4192 2.87552 14.3219 2.61585 15.2784C2.28577 16.4986 2.5049 17.6444 2.75854 18.9711C2.90247 19.7216 2.94346 20.6043 2.15972 21.4631C2.0876 21.5415 2.01117 21.6206 1.9372 21.6966L1.91224 21.7225L1.87402 21.7614C1.73917 21.89 1.61689 22.0309 1.50881 22.1822C1.4565 22.2424 1.42415 22.3169 1.4161 22.3957C1.40806 22.4746 1.42471 22.5539 1.46381 22.6231C1.48068 22.6425 1.50196 22.6576 1.52591 22.6673C1.54986 22.677 1.57579 22.6809 1.60157 22.6788C1.66364 22.6765 1.72494 22.6644 1.7831 22.6429C2.04772 22.5216 2.29032 22.3581 2.5012 22.1591L2.50952 22.1521L2.61924 22.0609C3.02587 21.6787 3.53551 21.4201 4.08717 21.3162C4.17083 21.3062 4.25501 21.3011 4.33928 21.301C4.78322 21.3189 5.21687 21.4384 5.60596 21.6501C5.69842 21.6942 5.8029 21.7443 5.91139 21.7875C6.40806 21.986 6.92627 22.1273 7.45575 22.2087C8.16661 22.3162 8.88994 22.3162 9.6008 22.2087C9.14336 21.4976 8.63204 20.8218 8.07122 20.1868C7.98293 20.0856 7.92588 19.9615 7.9068 19.8293C7.88772 19.697 7.90742 19.5622 7.96356 19.4406C8.01971 19.3191 8.10995 19.216 8.22362 19.1434C8.3373 19.0709 8.46964 19.032 8.60502 19.0313C8.70651 19.0314 8.80683 19.0528 8.89926 19.0942C8.99169 19.1355 9.0741 19.1959 9.14097 19.2712C9.82454 20.0489 10.4413 20.8813 10.9849 21.7599L11.0059 21.7933L11.0274 21.8274C12.1236 21.4028 13.0916 20.7088 13.8394 19.8113C13.538 19.3211 13.2415 18.8863 12.933 18.4816C12.3655 17.7122 11.7332 16.9914 11.0428 16.3268C10.9189 16.1953 10.851 16.0219 10.8532 15.8423C10.8553 15.6628 10.9274 15.491 11.0544 15.3624C11.1814 15.2338 11.3537 15.1584 11.5355 15.1517C11.7174 15.145 11.8948 15.2075 12.0312 15.3264C12.7755 16.0442 13.4579 16.822 14.0712 17.6517C14.2829 17.9296 14.4829 18.2109 14.682 18.5117C14.9641 17.937 15.1492 17.3207 15.23 16.6872C15.2516 16.5096 15.2648 16.349 15.2704 16.1961L15.2762 15.9704V15.9668C15.2784 15.1111 15.1031 14.264 14.7613 13.4776C14.4194 12.6911 13.9182 11.982 13.2884 11.3937C13.2286 11.3378 13.1651 11.2803 13.0973 11.2228C13.0594 11.2004 13.0236 11.1747 12.9903 11.1459C12.9678 11.1254 12.9465 11.1037 12.9265 11.0808C11.8561 10.2131 10.513 9.7401 9.12772 9.74285C8.99889 9.74285 8.8713 9.74771 8.75264 9.75319C7.40033 9.85308 6.11979 10.3927 5.11162 11.2876C5.61006 11.6568 6.07888 12.0635 6.51391 12.5039C7.14534 13.132 7.70518 13.8264 8.1834 14.5747C8.28235 14.732 8.31392 14.9216 8.27118 15.1018C8.22844 15.282 8.11488 15.4381 7.95549 15.5358C7.7961 15.6334 7.60394 15.6645 7.42127 15.6224C7.2386 15.5802 7.08039 15.4682 6.98144 15.3109C6.55692 14.65 6.06089 14.0365 5.5021 13.4812C5.07868 13.051 4.61826 12.6577 4.12601 12.306H4.12631ZM16.7667 10.2589C16.8892 10.2586 17.0116 10.2648 17.1334 10.2774C18.3385 10.3869 18.8066 11.4594 19.1484 12.2424C19.2766 12.6088 19.4704 12.9496 19.7204 13.2486C20.2065 13.613 20.7606 13.8794 21.3511 14.0325L21.699 14.1542C22.3218 14.3812 22.9279 14.6508 23.5128 14.9609C23.7038 13.9654 23.4998 12.9355 22.9429 12.0843C22.3804 11.3421 21.6772 10.7146 20.8724 10.2367C20.1766 9.74881 19.4118 9.36469 18.6026 9.09667C18.4483 9.05154 18.3143 8.95575 18.2228 8.82517C18.1312 8.6946 18.0877 8.53709 18.0993 8.37874C18.1116 8.22054 18.1777 8.07108 18.2868 7.95453C18.396 7.83798 18.5417 7.76117 18.7006 7.73652C20.0969 7.52522 21.3636 6.80911 22.2544 5.72745C22.9888 4.83217 23.4235 3.73412 23.4986 2.58476C22.6242 2.70209 21.7841 2.99766 21.0318 3.4527C20.2795 3.90773 19.6314 4.51226 19.1287 5.22784C18.8467 5.65437 18.5895 6.0963 18.3582 6.55151C17.9672 7.37328 17.4586 8.13538 16.848 8.81449C16.782 8.88241 16.7029 8.93655 16.6152 8.97369C16.5276 9.01083 16.4333 9.03021 16.338 9.03069C16.2939 9.03068 16.2499 9.0264 16.2067 9.01792C16.0908 8.99642 15.9823 8.94676 15.8908 8.87343C15.7993 8.80011 15.7278 8.70544 15.6827 8.59798C15.4189 7.9661 15.6559 7.36979 15.8288 6.93435C16.1261 6.19723 16.1777 5.38586 15.9761 4.61785C15.6427 3.65305 14.9498 2.84954 14.0379 2.37039C13.0929 1.86488 12.056 1.54856 10.9868 1.43959C11.2697 2.03287 11.4537 2.66735 11.5316 3.31851V3.32429C11.5858 3.83145 11.7211 4.32695 11.9323 4.7924C12.1789 5.24639 12.6581 5.5453 13.1651 5.86185L13.1685 5.86398L13.1719 5.86611C13.7883 6.24925 14.4842 6.68318 14.8583 7.4674C15.0872 7.96935 15.1488 8.53001 15.0343 9.0687C14.9262 9.59163 14.7162 10.0889 14.416 10.5329C14.4897 10.6058 14.5513 10.6694 14.6047 10.7272C15.29 10.4413 16.023 10.2825 16.7667 10.2589Z" fill="#626262"/>
</svg>
