<svg width="23" height="23" viewBox="0 0 23 23" fill="none" xmlns="http://www.w3.org/2000/svg">
<path d="M4.06452 23C3.53804 23.0001 3.02791 22.817 2.62149 22.4821C2.21508 22.1472 1.93767 21.6813 1.83678 21.1642C1.3925 21.0787 0.984284 20.8612 0.665361 20.54C0.325769 20.2004 0.102524 19.7618 0.0277223 19.2873C-0.0470796 18.8127 0.0304135 18.3267 0.249061 17.899C0.467709 17.4712 0.816249 17.1239 1.24458 16.9069C1.6729 16.69 2.15895 16.6145 2.63285 16.6913L5.72838 13.5922C5.78673 12.5886 5.98944 11.5987 6.33025 10.653C6.70022 9.58577 7.15607 8.55027 7.69332 7.55673C8.71392 5.64317 10.0424 3.7594 11.1608 2.64048C11.9753 1.81323 12.9356 1.1438 13.9933 0.665921C14.9398 0.234688 15.9666 0.0078142 17.0066 7.4903e-05C17.7875 -0.00379342 18.5619 0.142206 19.2879 0.430166C20.0243 0.725431 20.6927 1.16795 21.2523 1.73065C21.8775 2.35905 22.3559 3.11829 22.653 3.95378C22.95 4.78927 23.0584 5.68024 22.9703 6.56265C22.8149 8.42287 21.8828 10.2933 20.3456 11.8304C19.2278 12.9496 17.3454 14.2793 15.4331 15.3006C14.4404 15.8382 13.4057 16.2944 12.3393 16.6647C11.3946 17.0057 10.4057 17.2085 9.40311 17.267L6.30502 20.3681C6.35746 20.6926 6.33882 21.0247 6.25039 21.3413C6.16196 21.658 6.00584 21.9516 5.79285 22.2019C5.57985 22.4522 5.31506 22.6532 5.01679 22.791C4.71852 22.9288 4.3939 23.0001 4.06537 23H4.06452ZM2.45481 19.8918C2.47324 19.8918 2.49195 19.8918 2.50981 19.8938C2.51271 19.8943 2.5157 19.8943 2.5186 19.8938H2.53192H2.5427C2.55345 19.8948 2.56414 19.8964 2.57473 19.8986H2.57728C2.68089 19.9177 2.77831 19.9617 2.8612 20.0268C2.9441 20.0919 3.01001 20.1761 3.05328 20.2722C3.05319 20.2729 3.05319 20.2735 3.05328 20.2742C3.0534 20.275 3.0534 20.2759 3.05328 20.2768C3.05968 20.2896 3.06509 20.3028 3.06944 20.3165L3.07398 20.329L3.07596 20.3338C3.07682 20.3357 3.07758 20.3377 3.07823 20.3397C3.0822 20.3517 3.08475 20.3633 3.08787 20.3755L3.09127 20.3897C3.09127 20.3951 3.09354 20.3999 3.09467 20.4047C3.09751 20.4183 3.10091 20.4331 3.10346 20.4504C3.10353 20.4543 3.10419 20.4583 3.10544 20.462V20.4731C3.10734 20.4853 3.10809 20.4976 3.10771 20.51C3.10771 20.5219 3.10771 20.5329 3.10771 20.5446C3.1082 20.5526 3.1082 20.5607 3.10771 20.5687C3.10769 20.585 3.10655 20.6013 3.10431 20.6175V20.6251C3.08607 20.7687 3.10136 20.9146 3.14898 21.0513C3.19659 21.188 3.27524 21.3118 3.37874 21.413C3.53488 21.5693 3.73975 21.6676 3.95935 21.6914C4.17896 21.7152 4.4001 21.6632 4.5861 21.544C4.77211 21.4247 4.91179 21.2455 4.98198 21.0359C5.05217 20.8263 5.04865 20.599 4.97201 20.3917C4.9686 20.3809 4.96577 20.3712 4.96237 20.3613V20.357C4.96237 20.3542 4.96095 20.3508 4.9601 20.3474C4.95613 20.3355 4.9533 20.3236 4.95046 20.3114L4.94706 20.2977C4.94693 20.2949 4.94645 20.292 4.94564 20.2892V20.2867C4.94224 20.2682 4.93969 20.249 4.93799 20.2322V20.228C4.9357 20.2091 4.93456 20.1902 4.93458 20.1712V20.1658C4.93447 20.1469 4.93561 20.1279 4.93799 20.1091C4.9375 20.1059 4.9375 20.1026 4.93799 20.0994C4.93897 20.0827 4.94115 20.066 4.94451 20.0495C4.94451 20.0441 4.94649 20.0387 4.94763 20.0345C4.94904 20.0257 4.95131 20.0172 4.95358 20.0081C4.95585 19.999 4.95641 19.997 4.95755 19.9911C4.95868 19.9851 4.96208 19.9769 4.96407 19.9684L4.97598 19.9366L4.97853 19.9306C4.98193 19.9221 4.98533 19.9139 4.98817 19.9054L4.99979 19.8813L5.00574 19.8696C5.00943 19.8623 5.01311 19.8549 5.01737 19.8478L5.01992 19.8433C5.0226 19.838 5.02573 19.833 5.02927 19.8282C5.03324 19.8211 5.03806 19.8138 5.04288 19.8067L5.05224 19.7925L5.05819 19.7842L5.06414 19.776C5.07237 19.7644 5.08115 19.7536 5.09249 19.7423C5.09688 19.7369 5.10162 19.7319 5.10667 19.7272C5.11347 19.719 5.11858 19.713 5.1251 19.7065L7.76675 17.0621C7.33654 16.9262 6.94542 16.6885 6.62651 16.3692C6.30761 16.0499 6.07033 15.6583 5.93477 15.2277L3.85445 17.3058L3.86381 17.3146C3.86777 17.3183 3.87174 17.3217 3.87515 17.3254C4.19547 17.6441 4.41276 18.0517 4.49885 18.4954C4.52002 18.6599 4.47783 18.8262 4.38084 18.9607C4.28386 19.0951 4.13936 19.1876 3.97671 19.2193C3.81406 19.2509 3.64546 19.2195 3.50516 19.1312C3.36487 19.043 3.26341 18.9046 3.2214 18.7442C3.18862 18.5815 3.11482 18.4299 3.007 18.3037C2.89917 18.1776 2.76091 18.0812 2.60535 18.0236C2.49478 17.9819 2.37763 17.9605 2.25948 17.9603C2.13283 17.9609 2.00752 17.9863 1.89072 18.0354C1.77391 18.0844 1.66791 18.1559 1.57876 18.246C1.48961 18.336 1.41906 18.4427 1.37116 18.56C1.32325 18.6774 1.29892 18.803 1.29955 18.9297C1.30008 19.1879 1.40299 19.4353 1.58569 19.6176C1.7684 19.7999 2.01594 19.9022 2.27394 19.902C2.31069 19.902 2.34741 19.9 2.38394 19.896H2.39273C2.40851 19.8938 2.42442 19.8927 2.44035 19.8926H2.44829L2.45481 19.8918ZM9.14314 15.9543C9.17157 15.9543 9.19996 15.956 9.22819 15.9594C10.5501 15.9358 12.4782 15.3296 14.5177 14.2963C16.4526 13.3161 18.2883 12.0503 19.4268 10.9101C20.7454 9.58917 21.5448 8.00725 21.6741 6.45569C21.7448 5.76222 21.6611 5.06171 21.4291 4.40443C21.1972 3.74714 20.8227 3.1494 20.3326 2.6541C19.8959 2.21254 19.375 1.86341 18.8007 1.62746C18.2264 1.39152 17.6106 1.27359 16.9898 1.2807C15.2945 1.2807 13.5513 2.09067 12.0808 3.56109C10.9417 4.701 9.67669 6.53995 8.69719 8.47706C7.66497 10.5197 7.05942 12.4489 7.03645 13.7723C7.04204 13.8243 7.04204 13.8767 7.03645 13.9287C7.04808 14.6095 7.21903 15.1219 7.54533 15.4484C7.96524 15.8085 8.50833 15.9916 9.06036 15.9591C9.08783 15.9559 9.11547 15.9543 9.14314 15.9543ZM12.9854 8.62459C12.7341 8.62514 12.4904 8.53844 12.2958 8.37928C12.1012 8.22012 11.9679 7.99835 11.9184 7.75178C11.869 7.50521 11.9066 7.24911 12.0247 7.02716C12.1429 6.8052 12.3343 6.63113 12.5663 6.53463C12.7984 6.43812 13.0567 6.42516 13.2973 6.49795C13.5378 6.57074 13.7457 6.72477 13.8855 6.93379C14.0252 7.1428 14.0882 7.39386 14.0636 7.64414C14.0391 7.89442 13.9285 8.12843 13.7509 8.30627C13.6506 8.40728 13.5313 8.48742 13.4 8.54205C13.2686 8.59668 13.1277 8.62474 12.9854 8.62459ZM17.4593 8.45834C17.2083 8.45848 16.965 8.37152 16.7709 8.21227C16.5767 8.05302 16.4438 7.83134 16.3947 7.58499C16.3456 7.33865 16.3834 7.08289 16.5016 6.8613C16.6198 6.6397 16.8112 6.46598 17.043 6.36974C17.2749 6.2735 17.5329 6.26069 17.7732 6.33349C18.0134 6.4063 18.221 6.56021 18.3605 6.76901C18.5001 6.97781 18.563 7.22857 18.5385 7.47857C18.514 7.72857 18.4036 7.96233 18.2262 8.14002C18.1257 8.241 18.0061 8.32102 17.8745 8.37546C17.7429 8.42991 17.6018 8.45769 17.4593 8.4572V8.45834ZM15.6628 4.98413C15.4845 4.98396 15.3091 4.93983 15.1519 4.85563C14.9948 4.77143 14.8608 4.64977 14.7619 4.50141C14.6629 4.35305 14.602 4.18257 14.5846 4.00505C14.5672 3.82753 14.5938 3.64845 14.662 3.48366C14.7302 3.31887 14.838 3.17345 14.9757 3.06026C15.1135 2.94708 15.277 2.86963 15.4518 2.83476C15.6266 2.79989 15.8073 2.80868 15.9779 2.86035C16.1485 2.91202 16.3038 3.00498 16.4299 3.131C16.5816 3.28286 16.6848 3.47628 16.7266 3.68684C16.7684 3.89739 16.7469 4.11562 16.6648 4.31395C16.5827 4.51227 16.4437 4.68179 16.2653 4.80108C16.087 4.92036 15.8773 4.98407 15.6628 4.98413Z" fill="#626262"/>
</svg>
