<svg width="19" height="20" viewBox="0 0 19 20" fill="none" xmlns="http://www.w3.org/2000/svg">
<path d="M18.928 11.241C18.8411 11.6548 18.6666 12.0432 18.4172 12.378C18.1678 12.7128 17.8499 12.9857 17.4864 13.1767C17.5845 13.2988 17.6741 13.428 17.7546 13.5634C18.3823 14.6133 18.6173 16.1385 18.2893 17.0355C17.5414 19.0485 15.2751 19.6239 14.3359 19.7779C13.843 19.8607 13.3446 19.903 12.8454 19.9045C12.0457 19.9109 11.2505 19.7808 10.4915 19.5194C8.6735 18.8863 7.66701 17.4401 6.86663 16.1316C6.82837 16.0693 6.8023 15.9997 6.7899 15.9269C6.7775 15.8541 6.77901 15.7794 6.79436 15.7072C6.80971 15.635 6.83858 15.5666 6.87934 15.506C6.9201 15.4454 6.97194 15.3937 7.0319 15.3539C7.09187 15.3142 7.15878 15.287 7.22882 15.2742C7.29886 15.2613 7.37066 15.2628 7.44011 15.2788C7.50957 15.2948 7.57532 15.3248 7.63361 15.3672C7.69191 15.4095 7.7416 15.4634 7.77986 15.5258C8.67491 16.9852 9.49961 17.9846 10.8373 18.4505C11.9138 18.8021 13.0566 18.8749 14.1663 18.6629C14.7552 18.5671 16.719 18.1341 17.2781 16.6305C17.4623 16.1253 17.3133 14.9567 16.8347 14.1557C16.664 13.8722 16.3861 13.5246 16.0244 13.489C15.8852 13.4696 15.7586 13.395 15.6712 13.2806C15.5838 13.1663 15.5424 13.0212 15.5557 12.8758C15.569 12.7304 15.636 12.596 15.7426 12.5009C15.8492 12.4057 15.9871 12.3573 16.1274 12.3656C16.5223 12.3908 16.9132 12.2702 17.2311 12.0252C17.549 11.7802 17.7736 11.4265 17.8653 11.0262C17.9236 10.6185 17.8424 10.2025 17.6359 9.85065C17.4294 9.4988 17.1107 9.23347 16.7353 9.10089C16.6413 9.07184 16.5566 9.01684 16.4902 8.94174C16.4238 8.86663 16.3782 8.77423 16.3583 8.67435C16.3383 8.57446 16.3448 8.47083 16.377 8.37447C16.4092 8.2781 16.4658 8.1926 16.541 8.12705C17.0892 7.64493 17.4974 7.01368 17.7201 6.30398C17.9428 5.59428 17.9711 4.83413 17.8018 4.10867C17.6085 3.39649 17.2103 2.76284 16.6607 2.29278C16.111 1.82273 15.4362 1.53876 14.7268 1.47901C13.3485 1.40757 11.9331 2.42806 11.5754 3.80524C11.5418 3.94457 11.4582 4.06527 11.3418 4.14264C11.2254 4.22001 11.0849 4.2482 10.9492 4.22145C10.8135 4.1947 10.6927 4.11502 10.6116 3.99872C10.5305 3.88243 10.4952 3.7383 10.5129 3.59584C10.5532 3.12058 10.4508 2.64404 10.2198 2.2318C9.98881 1.81956 9.64061 1.49189 9.22313 1.29391C8.79624 1.11686 8.32724 1.08094 7.88001 1.19102C7.43277 1.3011 7.02904 1.55185 6.72379 1.9091C6.43704 2.28018 6.26788 2.7345 6.23955 3.2096C6.21123 3.6847 6.32513 4.15727 6.56561 4.56233C6.63924 4.67923 6.66844 4.82041 6.64754 4.95845C6.62664 5.09649 6.55712 5.22151 6.45251 5.30923C6.34789 5.39695 6.21565 5.44109 6.08148 5.43308C5.9473 5.42508 5.82079 5.36548 5.72651 5.26589C5.1502 4.65929 4.51604 4.08264 3.78271 3.982C2.97998 3.8838 2.07194 4.44228 1.59148 5.34936C0.734443 6.98357 1.08292 8.98257 1.69631 10.3082C2.30852 11.5666 3.17569 12.6721 4.23815 13.5486C4.73679 12.9372 5.25314 12.3417 5.78719 11.7622C5.81719 11.7186 5.85305 11.6797 5.89367 11.6466C6.4655 11.0314 7.05504 10.4357 7.66229 9.85945C8.15022 9.39826 8.65005 8.95025 9.16175 8.51541C9.19415 7.96818 9.17175 7.41894 9.09493 6.87653C9.04972 6.53135 8.9732 6.19139 8.86639 5.8612C8.83082 5.72218 8.84762 5.57429 8.91336 5.44772C8.97911 5.32114 9.08884 5.22543 9.22015 5.18013C9.35146 5.13483 9.49445 5.14335 9.61993 5.20395C9.7454 5.26455 9.8439 5.37267 9.89531 5.50623C10.0227 5.90095 10.1143 6.3072 10.1689 6.71967C10.2113 7.01822 10.2387 7.31885 10.2511 7.62036C11.7275 6.45404 13.2838 5.40122 14.9074 4.47027C15.0325 4.40784 15.1758 4.39752 15.3079 4.44143C15.44 4.48535 15.5509 4.58017 15.618 4.70644C15.685 4.83271 15.703 4.98086 15.6683 5.12049C15.6336 5.26013 15.5488 5.38066 15.4314 5.45737C13.5493 6.53604 11.7614 7.78325 10.0877 9.18485C10.0487 9.22893 10.0036 9.26688 9.9541 9.29753C9.42114 9.74742 8.90055 10.2126 8.3923 10.6931C8.07971 10.9877 7.77184 11.2914 7.46916 11.5975C8.39744 11.6763 9.32005 11.8157 10.2315 12.0148C11.2035 12.2166 12.1606 12.489 13.0959 12.8301C13.2154 12.8754 13.3158 12.9628 13.3797 13.0772C13.4435 13.1916 13.4667 13.3257 13.4452 13.456C13.4237 13.5864 13.3589 13.7048 13.262 13.7905C13.1652 13.8763 13.0424 13.9239 12.9152 13.9252C12.8536 13.9254 12.7925 13.9143 12.7346 13.8923C11.8457 13.5684 10.936 13.3099 10.0122 13.1185C8.84238 12.8638 7.65427 12.7104 6.46007 12.66C5.87203 13.3033 5.30602 13.9682 4.76205 14.6548C4.75568 14.6641 4.7493 14.6737 4.74222 14.684C4.72876 14.7019 4.71412 14.7179 4.69972 14.7331C4.03676 15.5719 3.40842 16.4392 2.81471 17.3353C2.73331 17.4583 2.60822 17.5427 2.46698 17.5699C2.32574 17.597 2.1799 17.5647 2.06155 17.4801C1.94321 17.3955 1.86204 17.2654 1.83592 17.1186C1.8098 16.9717 1.84085 16.8201 1.92226 16.697C2.43805 15.9165 2.98029 15.1567 3.54898 14.4177C2.36418 13.438 1.39856 12.202 0.719096 10.7955C-0.210424 8.78471 -0.241117 6.4894 0.640476 4.80732C1.34145 3.48317 2.67281 2.7035 3.91941 2.86405C4.35527 2.92865 4.77389 3.08493 5.14972 3.32335C5.15263 2.54113 5.41667 1.78423 5.89674 1.18197C6.35082 0.639624 6.95686 0.258765 7.62977 0.0928637C8.30267 -0.0730373 9.00865 -0.0156483 9.64859 0.256973C10.3884 0.595572 10.9811 1.2073 11.3124 1.97391C11.7341 1.44703 12.266 1.02721 12.8675 0.746431C13.4689 0.465654 14.1241 0.33133 14.783 0.353695C15.7187 0.429848 16.6096 0.80192 17.336 1.41993C18.0624 2.03794 18.5895 2.87229 18.8465 3.81089C19.0433 4.60862 19.051 5.44406 18.869 6.24557C18.687 7.04708 18.3208 7.79074 17.8018 8.41279C18.2229 8.72959 18.5512 9.16174 18.7501 9.6611C18.9489 10.1605 19.0105 10.7074 18.928 11.241Z" fill="#626262"/>
</svg>
