<svg width="22" height="21" viewBox="0 0 22 21" fill="none" xmlns="http://www.w3.org/2000/svg">
<path d="M3.96161 20.9995C3.42685 21.0007 2.90091 20.8658 2.43521 20.6077C1.96951 20.3497 1.58 19.9775 1.30475 19.5274C1.0295 19.0774 0.877939 18.5649 0.864887 18.0401C0.851836 17.5153 0.97774 16.9962 1.23029 16.5335C0.850866 16.2549 0.54226 15.8939 0.328618 15.4788C0.0924255 15.0163 -0.0197018 14.5023 0.00283498 13.9853C0.0253717 13.4684 0.181828 12.9657 0.457414 12.5247C0.733001 12.0836 1.11861 11.7189 1.5778 11.4649C2.03698 11.2109 2.55458 11.076 3.08164 11.073C2.68457 10.6357 2.4249 10.0949 2.33394 9.51595C2.24299 8.93698 2.32465 8.34454 2.56907 7.81011C2.81348 7.27568 3.21022 6.82209 3.7114 6.50406C4.21259 6.18604 4.79681 6.01716 5.3936 6.0178C5.50282 6.0178 5.61196 6.02393 5.72047 6.03618C5.69081 5.86757 5.67557 5.69683 5.6749 5.52573C5.6749 4.7203 6.00084 3.94786 6.58103 3.37834C7.16122 2.80882 7.94812 2.48887 8.76862 2.48887C9.58913 2.48887 10.376 2.80882 10.9562 3.37834C11.5364 3.94786 11.8624 4.7203 11.8624 5.52573C11.8621 5.67159 11.8514 5.81726 11.8301 5.96162C12.1236 6.03685 12.4041 6.1545 12.6623 6.3107C13.3039 5.44977 13.6012 4.38762 13.4978 3.32577C13.3934 2.46971 13.0305 1.66387 12.4559 1.01184C12.3479 0.889086 12.294 0.729326 12.3059 0.567598C12.3178 0.405869 12.3946 0.255374 12.5193 0.149114C12.6317 0.053057 12.7756 9.8953e-05 12.9246 0C13.0142 3.42472e-05 13.1028 0.0189506 13.1843 0.0554706C13.2658 0.0919906 13.3384 0.145263 13.3971 0.211688C14.1243 1.03731 14.5875 2.05497 14.7288 3.13751C15.57 2.65697 16.5293 2.41182 17.5024 2.42869C17.7354 2.42869 17.9774 2.44094 18.221 2.4649C19.5296 2.59931 20.7672 3.11522 21.7745 3.94619C21.8391 3.99863 21.8923 4.06338 21.9308 4.13653C21.9693 4.20968 21.9922 4.28973 21.9984 4.37184C22.0045 4.45394 21.9936 4.53642 21.9663 4.61428C21.9391 4.69215 21.8961 4.76379 21.8399 4.82489C20.8188 5.94897 19.3876 6.63281 17.8564 6.72822C17.7718 6.73168 17.6917 6.73328 17.6185 6.73328C16.7735 6.72955 15.9402 6.5384 15.181 6.17411C15.1061 6.13985 15.0389 6.0913 14.9833 6.03128C14.9277 5.97127 14.8849 5.90099 14.8573 5.82455C14.8297 5.74811 14.8178 5.66703 14.8225 5.58606C14.8271 5.50508 14.8482 5.42582 14.8843 5.35291C14.9205 5.28 14.9711 5.21489 15.0332 5.16138C15.0953 5.10788 15.1677 5.06704 15.246 5.04126C15.3243 5.01549 15.4071 5.00528 15.4895 5.01124C15.5719 5.01721 15.6523 5.03922 15.7259 5.07599C16.3141 5.3591 16.9599 5.50811 17.615 5.51188C17.6763 5.51188 17.7384 5.51055 17.7994 5.50762C18.7609 5.45324 19.6779 5.09237 20.4114 4.4798C19.715 4.03819 18.922 3.76447 18.0973 3.68098C17.899 3.66207 17.7031 3.65249 17.5152 3.65249C15.8024 3.65249 14.9599 4.43826 14.6832 4.69655C14.51 5.58807 14.1312 6.42886 13.5759 7.15453C13.9067 7.61617 14.0993 8.15942 14.132 8.72288C14.3474 8.67879 14.5668 8.65666 14.7868 8.65685C15.607 8.65685 16.3935 8.97666 16.9735 9.54593C17.5534 10.1152 17.8792 10.8873 17.8792 11.6924C17.8792 12.4974 17.5534 13.2695 16.9735 13.8388C16.3935 14.4081 15.607 14.7279 14.7868 14.7279H14.7743H14.7619C14.4389 15.4634 13.8543 16.0584 13.1172 16.4018C12.3801 16.7452 11.5408 16.8135 10.7562 16.594C10.6902 17.3557 10.3356 18.0655 9.76238 18.5832C9.18919 19.1008 8.43911 19.3887 7.66025 19.3898C7.35348 19.3907 7.04835 19.3459 6.75533 19.2567C6.50636 19.7778 6.11137 20.2184 5.61657 20.5272C5.12177 20.8359 4.54764 20.9999 3.96134 21L3.96161 20.9995ZM2.35928 17.0562C2.19443 17.3327 2.10807 17.6475 2.10917 17.9679C2.11087 18.4099 2.27686 18.8361 2.57598 19.1665C2.87511 19.4968 3.2868 19.7087 3.73375 19.7622C4.18071 19.8157 4.6322 19.7072 5.00344 19.4571C5.37469 19.207 5.64017 18.8325 5.75004 18.4038C5.7507 18.3439 5.76237 18.2845 5.78449 18.2286C5.7855 18.219 5.78704 18.2095 5.7891 18.2001V18.1969C5.79479 18.1376 5.80239 18.0489 5.80239 17.9679C5.80462 17.7171 5.75182 17.4687 5.64758 17.2397C5.54334 17.0106 5.39011 16.8063 5.19829 16.6406C5.13751 16.5848 5.07298 16.5331 5.00515 16.4858C4.6385 16.7742 4.20903 16.9757 3.75013 17.0746C3.29124 17.1735 2.81529 17.1672 2.35928 17.0562ZM7.8439 14.5205C7.51264 14.6462 7.16143 14.7138 6.80632 14.7202C6.41143 14.9156 6.1018 15.2445 5.93449 15.6463C5.97274 15.6769 6.00773 15.7073 6.04137 15.739C6.36081 16.0192 6.61607 16.3627 6.79029 16.7469C6.96452 17.1311 7.05375 17.5471 7.05209 17.9677C7.05209 17.9972 7.05209 18.0289 7.04883 18.0646C7.24514 18.134 7.45241 18.1688 7.66107 18.1674C8.15492 18.1668 8.62839 17.974 8.97759 17.6312C9.3268 17.2884 9.52324 16.8236 9.52381 16.3389C9.52336 16.1909 9.50515 16.0435 9.46956 15.8998C9.10664 15.5876 8.8161 15.2027 8.61753 14.771C8.38307 14.6305 8.11884 14.5448 7.84525 14.5205H7.8439ZM3.09683 12.2947C2.60557 12.2954 2.13465 12.4873 1.78737 12.8284C1.4401 13.1695 1.24482 13.6319 1.24439 14.1141C1.2438 14.4695 1.3507 14.817 1.55155 15.1126C1.7524 15.4082 2.03815 15.6386 2.37257 15.7746C2.59875 15.8709 2.84272 15.9203 3.08924 15.9198C3.34445 15.9205 3.59699 15.8687 3.83059 15.7678C4.06419 15.6669 4.27367 15.5191 4.44554 15.3339C4.44923 15.3293 4.45331 15.3249 4.45775 15.3209C4.46073 15.318 4.46372 15.3153 4.46643 15.3124L4.46968 15.3092C4.48189 15.2972 4.49437 15.285 4.50685 15.2748C4.77628 14.9594 4.92847 14.5635 4.93842 14.152C4.33847 13.7291 3.91196 13.11 3.73565 12.406C3.53101 12.3317 3.31447 12.294 3.09629 12.2947H3.09683ZM11.6806 11.3513C11.241 11.3506 10.8121 11.4847 10.4539 11.735C10.0957 11.9852 9.82601 12.339 9.6826 12.747C9.53919 13.1549 9.52917 13.5967 9.65394 14.0105C9.77871 14.4243 10.032 14.7895 10.3786 15.0552C10.3921 15.0645 10.4057 15.0749 10.4222 15.0876C10.7853 15.3547 11.227 15.4984 11.6806 15.4972C12.1149 15.496 12.5384 15.3639 12.8936 15.1187C13.2489 14.8734 13.5188 14.5269 13.6668 14.1261C13.6668 14.1075 13.6649 14.0907 13.6649 14.0729C13.666 13.9605 13.7002 13.8508 13.7633 13.7571C13.8442 13.2749 13.7485 12.7803 13.4932 12.3608C13.2379 11.9414 12.8396 11.6242 12.3688 11.4655C12.3272 11.4575 12.2865 11.4452 12.2475 11.4288L12.2427 11.4266H12.2402C12.0579 11.3772 11.8697 11.3518 11.6806 11.3513ZM6.74095 9.87319C6.25102 9.87319 5.78116 10.0642 5.43472 10.4043C5.08829 10.7444 4.89366 11.2056 4.89366 11.6865C4.89366 12.1674 5.08829 12.6287 5.43472 12.9687C5.78116 13.3088 6.25102 13.4998 6.74095 13.4998C7.00191 13.5007 7.25997 13.4462 7.4975 13.3401H7.49967L7.50265 13.3385C7.81828 13.1984 8.0874 12.974 8.27924 12.6909C8.47108 12.4078 8.5779 12.0774 8.5875 11.7375C8.59709 11.3976 8.50906 11.062 8.33348 10.7689C8.15791 10.4758 7.90186 10.2371 7.59461 10.0801C7.55496 10.0666 7.51701 10.0487 7.48149 10.0268C7.24818 9.92573 6.99599 9.8734 6.74095 9.87319ZM14.7879 9.87825C14.4098 9.87409 14.0404 9.98979 13.7346 10.2082C13.5876 10.3076 13.4557 10.4269 13.3426 10.5626C13.8487 10.8473 14.2713 11.2555 14.5693 11.7478C14.8759 12.2555 15.0376 12.835 15.0372 13.4253C15.0372 13.4463 15.0372 13.4682 15.0372 13.4895C15.5022 13.4285 15.9261 13.1961 16.2229 12.8396C16.5198 12.483 16.6673 12.0289 16.6356 11.5695C16.6039 11.1101 16.3953 10.6797 16.0521 10.3657C15.709 10.0517 15.257 9.87762 14.7879 9.87878V9.87825ZM11.0497 7.0829C10.6389 7.08159 10.2394 7.21492 9.91452 7.46177C9.58967 7.70862 9.35807 8.05484 9.25642 8.44556C9.15478 8.83628 9.18892 9.24912 9.35343 9.61863C9.51793 9.98814 9.80338 10.2932 10.1645 10.4854C10.7673 10.1861 11.4478 10.0719 12.1176 10.1576C12.3045 9.84468 12.5482 9.56807 12.8367 9.34144C12.8755 9.19812 12.8947 9.05038 12.894 8.90209C12.8947 8.44537 12.7204 8.00508 12.4057 7.6687C12.3827 7.65353 12.3609 7.6368 12.3403 7.61864C12.3104 7.59125 12.2832 7.56122 12.2589 7.52891C11.9243 7.24124 11.4945 7.08273 11.0497 7.0829ZM5.39387 7.23894C4.90385 7.23809 4.4335 7.42808 4.08601 7.76723C3.73853 8.10639 3.54228 8.567 3.54035 9.04801C3.53905 9.49501 3.70742 9.92646 4.01261 10.2582C4.27643 9.77293 4.66963 9.36712 5.15018 9.08417C5.63073 8.80122 6.18058 8.65177 6.74095 8.65179C6.89373 8.65178 7.0463 8.66264 7.19748 8.68427C7.13237 8.36742 6.97979 8.07422 6.75641 7.83672L6.73797 7.82048L6.71627 7.80104C6.65849 7.75343 6.6047 7.70133 6.55541 7.64527L6.53968 7.62983C6.21444 7.37466 5.80995 7.23661 5.3936 7.23867L5.39387 7.23894ZM8.76374 3.71613C8.39875 3.71653 8.04208 3.82322 7.73888 4.02268C7.43568 4.22215 7.19958 4.50544 7.06047 4.83668C6.92136 5.16792 6.88548 5.53223 6.95739 5.88349C7.02929 6.23476 7.20574 6.55719 7.4644 6.80997C7.50416 6.85176 7.54636 6.89124 7.59081 6.92819C7.82494 7.12321 8.10667 7.25516 8.40839 7.3111C8.64113 6.9324 8.95644 6.60902 9.33166 6.36418C9.70687 6.11934 10.1327 5.95913 10.5785 5.89505C10.6037 5.77331 10.6165 5.64942 10.6167 5.5252C10.615 5.04414 10.4189 4.58342 10.0714 4.24419C9.72394 3.90496 9.25353 3.71494 8.76347 3.71586L8.76374 3.71613Z" fill="#626262"/>
</svg>
