<svg width="17" height="20" viewBox="0 0 17 20" fill="none" xmlns="http://www.w3.org/2000/svg">
<path d="M8.5 20C8.45758 19.9997 8.41531 19.995 8.37385 19.9859H3.39335C2.49378 19.9849 1.63135 19.6268 0.995215 18.9903C0.359079 18.3537 0.00117368 17.4906 0 16.5903L0 8.36814C0.00110886 7.46786 0.359009 6.60479 0.995173 5.96829C1.63134 5.33179 2.49381 4.97384 3.39335 4.973H3.66017C3.40196 4.65642 3.21002 4.29108 3.09579 3.89873C2.98156 3.50638 2.94737 3.09504 2.99526 2.68919C3.04315 2.28334 3.17214 1.89129 3.37454 1.53636C3.57695 1.18143 3.84864 0.870893 4.17344 0.623222C4.49824 0.375551 4.86951 0.195813 5.26515 0.0947073C5.66079 -0.00639825 6.0727 -0.0268044 6.47639 0.0347035C6.88007 0.0962114 7.26726 0.238376 7.61491 0.452735C7.96256 0.667093 8.26356 0.949264 8.5 1.28245C8.77804 0.894055 9.14239 0.575578 9.56435 0.352108C10.1853 0.0255742 10.8998 -0.0763183 11.5872 0.0636615C12.2745 0.203641 12.8925 0.576903 13.3366 1.12032C13.7806 1.66375 14.0235 2.34398 14.0242 3.04599C14.0249 3.748 13.7833 4.42871 13.3403 4.973H13.6071C14.5066 4.97397 15.3689 5.33197 16.005 5.96846C16.6411 6.60495 16.9989 7.46795 17 8.36814V16.5903C16.999 17.4907 16.6413 18.3539 16.0052 18.9906C15.3692 19.6273 14.5068 19.9855 13.6071 19.9867H8.62664C8.58501 19.9955 8.54256 20 8.5 20ZM9.06667 13.0465V18.8546H13.6071C14.2069 18.8539 14.782 18.6151 15.2061 18.1906C15.6302 17.7661 15.8687 17.1906 15.8694 16.5903V13.0465H9.06667ZM1.13186 13.0465V16.5903C1.13251 17.1906 1.37105 17.7661 1.79515 18.1906C2.21926 18.6151 2.79428 18.8539 3.39409 18.8546H7.93481V13.0465H1.13186ZM9.06667 6.89754V11.9142H15.8694V8.36814C15.8687 7.76787 15.6302 7.19237 15.2061 6.76791C14.782 6.34345 14.2069 6.1047 13.6071 6.10405H9.87281L11.8759 8.10948C11.9294 8.16174 11.9721 8.22414 12.0014 8.29305C12.0307 8.36196 12.046 8.43601 12.0465 8.51089C12.047 8.58578 12.0326 8.66001 12.0041 8.72928C11.9757 8.79855 11.9338 8.86148 11.8809 8.91441C11.8279 8.96734 11.765 9.00921 11.6958 9.03761C11.6265 9.066 11.5524 9.08035 11.4775 9.07981C11.4027 9.07928 11.3287 9.06387 11.2599 9.03448C11.1911 9.0051 11.1288 8.96232 11.0766 8.90864L9.06667 6.89754ZM3.39335 6.1043C2.79357 6.10495 2.21854 6.3437 1.79443 6.76816C1.37032 7.19261 1.13177 7.76811 1.13112 8.36839V11.9142H7.93481V6.89754L5.92512 8.90889C5.81923 9.01512 5.67551 9.07491 5.52557 9.0751C5.37564 9.07528 5.23177 9.01585 5.12562 8.90987C5.01947 8.8039 4.95973 8.66006 4.95955 8.51C4.95937 8.35995 5.01875 8.21596 5.12464 8.10972L7.12842 6.1043H3.39335ZM10.98 1.13352C10.4724 1.13423 9.98571 1.33646 9.62682 1.69582C9.26794 2.05518 9.06614 2.54234 9.06568 3.05042V4.96535H10.98C11.4877 4.96535 11.9747 4.7635 12.3337 4.40419C12.6927 4.04489 12.8944 3.55757 12.8944 3.04943C12.8944 2.5413 12.6927 2.05398 12.3337 1.69468C11.9747 1.33537 11.4877 1.13352 10.98 1.13352ZM6.0212 1.13352C5.76981 1.13352 5.52087 1.18307 5.28861 1.27936C5.05635 1.37564 4.84532 1.51677 4.66755 1.69468C4.48979 1.87258 4.34878 2.08379 4.25258 2.31624C4.15637 2.54869 4.10686 2.79783 4.10686 3.04943C4.10686 3.30104 4.15637 3.55017 4.25258 3.78262C4.34878 4.01507 4.48979 4.22628 4.66755 4.40419C4.84532 4.5821 5.05635 4.72323 5.28861 4.81951C5.52087 4.91579 5.76981 4.96535 6.0212 4.96535H7.93457V3.05042C7.93424 2.54247 7.73261 2.05538 7.37391 1.69602C7.01522 1.33666 6.52874 1.13437 6.0212 1.13352Z" fill="#626262"/>
</svg>
