<svg width="20" height="18" viewBox="0 0 20 18" fill="none" xmlns="http://www.w3.org/2000/svg">
<path d="M11.6327 17.5C11.4825 17.5 11.3384 17.4402 11.2321 17.3338C11.1258 17.2273 11.0659 17.0829 11.0655 16.9322V7.98045H10.2204C9.75515 7.98006 9.30902 7.79455 8.97987 7.46462C8.65073 7.13469 8.46545 6.68727 8.46466 6.22048V0.604587C8.47146 0.458427 8.53412 0.320512 8.63963 0.219489C8.74513 0.118465 8.88537 0.0620997 9.03122 0.0620997C9.17707 0.0620997 9.31731 0.118465 9.42281 0.219489C9.52832 0.320512 9.59098 0.458427 9.59778 0.604587V6.22048C9.59797 6.38609 9.66364 6.54486 9.78037 6.66197C9.89709 6.77908 10.0554 6.84495 10.2204 6.84515H13.0452C13.2101 6.84463 13.368 6.77861 13.4845 6.66153C13.6009 6.54446 13.6664 6.38588 13.6666 6.22048V0.604587C13.6618 0.527019 13.6728 0.449278 13.6991 0.376158C13.7254 0.303038 13.7663 0.236089 13.8193 0.179441C13.8723 0.122792 13.9364 0.077645 14.0075 0.0467834C14.0786 0.0159218 14.1552 0 14.2327 0C14.3102 0 14.3868 0.0159218 14.4579 0.0467834C14.529 0.077645 14.5931 0.122792 14.6461 0.179441C14.6991 0.236089 14.7401 0.303038 14.7663 0.376158C14.7926 0.449278 14.8036 0.527019 14.7988 0.604587V6.22048C14.7981 6.68692 14.6132 7.13408 14.2845 7.46398C13.9558 7.79388 13.5102 7.9796 13.0452 7.98045H12.1979V16.9327C12.1974 17.083 12.1378 17.227 12.0319 17.3333C11.926 17.4395 11.7825 17.4995 11.6327 17.5ZM3.72481 17.5C3.5746 17.5 3.43052 17.4402 3.32419 17.3338C3.21786 17.2273 3.15796 17.0829 3.15764 16.9322V9.07171C2.24008 8.87693 1.43391 8.33197 0.909406 7.55196C0.308396 6.67874 -0.00914084 5.64062 0.000200333 4.5795C0.000200333 2.07387 1.67115 0.0355767 3.72382 0.0355767C5.7765 0.0355767 7.45041 2.07387 7.45041 4.5795C7.45965 5.6406 7.14193 6.67866 6.54071 7.55171C6.01579 8.33203 5.20907 8.87708 4.291 9.07171V16.9327C4.29054 17.0833 4.23058 17.2276 4.12427 17.334C4.01795 17.4403 3.87395 17.5 3.72382 17.5H3.72481ZM3.72481 1.17187C2.29454 1.17187 1.13159 2.70077 1.13159 4.57999C1.13159 6.45921 2.29356 7.98787 3.72382 7.98787C5.15409 7.98787 6.31729 6.45897 6.31729 4.5795C6.31729 2.70003 5.15409 1.17137 3.72382 1.17137L3.72481 1.17187ZM19.4331 17.4636C19.2832 17.463 19.1397 17.403 19.0339 17.2966C18.928 17.1902 18.8684 17.0462 18.8681 16.8959V10.5813H16.6981C16.5476 10.5813 16.4034 10.5214 16.297 10.4147C16.1906 10.308 16.1309 10.1632 16.1309 10.0123V3.65424C16.1322 2.77609 16.4807 1.93434 17.1 1.31374C17.7193 0.693141 18.5587 0.344406 19.4341 0.344079C19.5843 0.344407 19.7282 0.404501 19.8343 0.511175C19.9404 0.61785 20 0.762393 20 0.91309V16.8949C19.9998 17.0454 19.9401 17.1898 19.8341 17.2963C19.728 17.4028 19.5841 17.4628 19.4341 17.4631L19.4331 17.4636ZM18.8681 1.55607C18.4083 1.68136 18.0023 1.95484 17.7127 2.33438C17.4231 2.71392 17.2658 3.17846 17.2652 3.65646V9.44553H18.8681V1.55607ZM11.6327 5.91791C11.4823 5.91791 11.338 5.85796 11.2316 5.75125C11.1253 5.64454 11.0655 5.49981 11.0655 5.3489V0.604587C11.0607 0.527019 11.0717 0.449278 11.098 0.376158C11.1242 0.303038 11.1652 0.236089 11.2182 0.179441C11.2712 0.122792 11.3353 0.077645 11.4064 0.0467834C11.4775 0.0159218 11.5541 0 11.6316 0C11.7091 0 11.7857 0.0159218 11.8568 0.0467834C11.9279 0.077645 11.992 0.122792 12.045 0.179441C12.098 0.236089 12.1389 0.303038 12.1652 0.376158C12.1915 0.449278 12.2025 0.527019 12.1977 0.604587V5.35014C12.1973 5.50045 12.1377 5.64452 12.0319 5.7509C11.926 5.85728 11.7825 5.91732 11.6327 5.91791Z" fill="#626262"/>
</svg>
