<svg width="15" height="18" viewBox="0 0 15 18" fill="none" xmlns="http://www.w3.org/2000/svg">
<path d="M11.3285 4.29284C11.3285 5.21579 10.9357 6.10094 10.2364 6.75357C9.53722 7.40619 8.58883 7.77284 7.59995 7.77284C6.61107 7.77284 5.6627 7.40619 4.96345 6.75357C4.26421 6.10094 3.87138 5.21579 3.87138 4.29284C3.87138 3.36988 4.26421 2.48473 4.96345 1.8321C5.6627 1.17948 6.61107 0.812836 7.59995 0.812836C8.58883 0.812836 9.53722 1.17948 10.2364 1.8321C10.9357 2.48473 11.3285 3.36988 11.3285 4.29284ZM7.59995 10.3828C5.86941 10.3828 4.20976 11.0245 2.98608 12.1666C1.76241 13.3086 1.07495 14.8577 1.07495 16.4728H14.125C14.125 14.8577 13.4375 13.3086 12.2138 12.1666C10.9902 11.0245 9.33049 10.3828 7.59995 10.3828Z" stroke="black" stroke-width="1.5" stroke-linecap="round" stroke-linejoin="round"/>
</svg>
