<svg width="23" height="20" viewBox="0 0 23 20" fill="none" xmlns="http://www.w3.org/2000/svg">
<path d="M1.73211 19.73H21.268C21.5281 19.73 21.7778 19.6271 21.962 19.4437C22.1463 19.2602 22.25 19.0111 22.25 18.7511C22.25 18.4912 22.1463 18.2421 21.962 18.0586C21.7778 17.8751 21.5281 17.7722 21.268 17.7722H1.73211C1.47202 17.7722 1.22237 17.8751 1.03814 18.0586C0.853872 18.2421 0.75016 18.4912 0.75016 18.7511C0.75016 19.0111 0.853873 19.2602 1.03814 19.4437C1.22237 19.6271 1.47202 19.73 1.73211 19.73ZM1.73211 14.0563H14.1996C14.4597 14.0563 14.7094 13.9535 14.8936 13.77C15.0779 13.5865 15.1816 13.3374 15.1816 13.0775C15.1816 12.8175 15.0779 12.5684 14.8936 12.3849C14.7094 12.2015 14.4597 12.0986 14.1996 12.0986H1.73211C1.47202 12.0986 1.22237 12.2015 1.03814 12.3849C0.853872 12.5684 0.75016 12.8175 0.75016 13.0775C0.75016 13.3374 0.853872 13.5865 1.03814 13.77C1.22237 13.9535 1.47202 14.0563 1.73211 14.0563ZM1.73211 8.38301H21.268H21.2696C21.5292 8.38259 21.7782 8.27975 21.962 8.09667C22.1463 7.91318 22.25 7.66408 22.25 7.40413C22.25 7.14417 22.1463 6.89508 21.962 6.71158C21.7778 6.52813 21.5281 6.42525 21.268 6.42525H1.73211C1.47202 6.42525 1.22237 6.52813 1.03814 6.71158C0.853872 6.89508 0.75016 7.14417 0.75016 7.40413C0.75016 7.66408 0.853872 7.91318 1.03814 8.09667C1.22237 8.28013 1.47202 8.38301 1.73211 8.38301ZM1.73211 2.70808H14.1996C14.4598 2.70808 14.7095 2.60518 14.8937 2.42169C15.078 2.23817 15.1818 1.98903 15.1818 1.72904C15.1818 1.46904 15.078 1.21991 14.8937 1.03638C14.7095 0.852894 14.4598 0.75 14.1996 0.75H1.73211C1.47198 0.75 1.22229 0.852894 1.03803 1.03638C0.853729 1.21991 0.75 1.46904 0.75 1.72904C0.75 1.98904 0.853729 2.23817 1.03803 2.42169C1.22229 2.60518 1.47198 2.70808 1.73211 2.70808Z" fill="#E96125" stroke="#E96125" stroke-width="0.5"/>
</svg>
