<svg width="13" height="17" viewBox="0 0 13 17" fill="none" xmlns="http://www.w3.org/2000/svg">
<path d="M6.5 16.0588C6.44235 16.0591 6.38522 16.0474 6.33196 16.0245C6.2787 16.0017 6.23038 15.9681 6.18981 15.9256L1.90356 11.4884C0.994589 10.5472 0.375594 9.34801 0.124847 8.04256C-0.1259 6.73711 0.0028629 5.38399 0.494853 4.15431C0.986843 2.92462 1.81996 1.8736 2.88887 1.13414C3.95777 0.394683 5.21445 0 6.5 0C7.78555 0 9.04223 0.394683 10.1111 1.13414C11.18 1.8736 12.0132 2.92462 12.5051 4.15431C12.9971 5.38399 13.1259 6.73711 12.8752 8.04256C12.6244 9.34801 12.0054 10.5472 11.0964 11.4884L6.81038 15.9256C6.76978 15.9681 6.72142 16.0017 6.66813 16.0246C6.61484 16.0474 6.55769 16.0591 6.5 16.0588ZM6.5 0.911514C5.38807 0.910647 4.30088 1.25138 3.37607 1.89057C2.45127 2.52977 1.73042 3.43868 1.30479 4.50226C0.879157 5.56584 0.767876 6.73626 0.985034 7.86535C1.20219 8.99445 1.73802 10.0314 2.5247 10.8451L6.5 14.961L10.4753 10.8451C11.262 10.0314 11.7978 8.99445 12.015 7.86535C12.2321 6.73626 12.1208 5.56584 11.6952 4.50226C11.2696 3.43868 10.5487 2.52977 9.62393 1.89057C8.69912 1.25138 7.61193 0.910647 6.5 0.911514ZM6.5 9.24225C5.97912 9.24225 5.46993 9.08233 5.03683 8.78271C4.60373 8.48308 4.26617 8.05722 4.06684 7.55896C3.8675 7.06071 3.81535 6.51245 3.91697 5.9835C4.01859 5.45456 4.26942 4.96869 4.63774 4.58734C5.00606 4.206 5.47533 3.94629 5.9862 3.84108C6.49708 3.73587 7.02661 3.78987 7.50785 3.99625C7.98908 4.20263 8.4004 4.55213 8.68979 5.00055C8.97918 5.44897 9.13364 5.97616 9.13364 6.51547C9.13252 7.23827 8.85468 7.93113 8.36101 8.44219C7.86734 8.95325 7.19811 9.24081 6.5 9.24186V9.24225ZM6.5 4.69755C6.15273 4.69755 5.81326 4.80417 5.52452 5.00392C5.23577 5.20368 5.01073 5.4876 4.87783 5.81978C4.74494 6.15196 4.71017 6.51749 4.77792 6.87013C4.84566 7.22277 5.01289 7.54669 5.25845 7.80093C5.504 8.05518 5.81686 8.22832 6.15746 8.29846C6.49805 8.36861 6.85109 8.33261 7.17192 8.19501C7.49276 8.05742 7.76698 7.82441 7.95991 7.52545C8.15284 7.2265 8.25582 6.87502 8.25582 6.51547C8.25527 6.03347 8.07011 5.57137 7.74096 5.2305C7.41181 4.88964 6.96554 4.69783 6.5 4.69715V4.69755Z" fill="#1D1D1D"/>
</svg>
