<svg width="20" height="23" viewBox="0 0 20 23" fill="none" xmlns="http://www.w3.org/2000/svg">
<path d="M17.4353 22.0192H17.4346H2.56536H2.5648C2.27754 22.0186 1.99453 21.9498 1.7389 21.8184C1.48338 21.6872 1.26249 21.4972 1.09418 21.264C0.924887 21.0307 0.813922 20.7601 0.770554 20.475C0.727205 20.1899 0.752648 19.8986 0.84476 19.6255C0.844839 19.6252 0.844918 19.625 0.844996 19.6248L2.14714 15.7038C2.14715 15.7038 2.14715 15.7038 2.14716 15.7038C2.26716 15.3416 2.49783 15.0264 2.8066 14.8031C3.11539 14.5797 3.48655 14.4596 3.86739 14.4599M17.4353 22.0192L3.86719 14.7099M17.4353 22.0192C17.7227 22.0184 18.0057 21.9495 18.2614 21.818C18.5168 21.6866 18.7377 21.4966 18.9059 21.2634M17.4353 22.0192L18.9059 21.2634M3.86739 14.4599L3.86719 14.7099M3.86739 14.4599H3.86719V14.7099M3.86739 14.4599H6.09296C6.31521 14.4599 6.52817 14.5485 6.68505 14.706C6.84189 14.8634 6.92983 15.0767 6.92983 15.2989C6.92983 15.5212 6.84189 15.7345 6.68505 15.8919C6.52817 16.0493 6.31521 16.138 6.09296 16.138H3.86745H3.8664C3.83745 16.1378 3.80912 16.1469 3.78547 16.164C3.7618 16.1811 3.74398 16.2054 3.73474 16.2336L3.73445 16.2345L2.43134 20.1552L2.43112 20.1559C2.42396 20.1772 2.42197 20.2 2.42533 20.2223C2.4287 20.2446 2.43731 20.2657 2.45039 20.2839L2.24747 20.4299M3.86719 14.7099H6.09296C6.24861 14.7099 6.39788 14.7719 6.50794 14.8824C6.618 14.9929 6.67983 15.1427 6.67983 15.2989C6.67983 15.4552 6.618 15.605 6.50794 15.7154C6.39788 15.8259 6.24861 15.888 6.09296 15.888H3.86745C3.78549 15.8876 3.70552 15.9133 3.63901 15.9614C3.5725 16.0095 3.52286 16.0775 3.49721 16.1556L2.1941 20.0764C2.17433 20.1353 2.16885 20.1981 2.17813 20.2596C2.18742 20.3211 2.21119 20.3795 2.24747 20.4299M2.24747 20.4299C2.28375 20.4803 2.3315 20.5213 2.38675 20.5495M2.24747 20.4299L2.45039 20.2839C2.46346 20.3021 2.4806 20.3167 2.50032 20.3268C2.52003 20.3369 2.5418 20.342 2.56383 20.3419L2.56511 20.3419L17.4346 20.3419H17.435C17.4571 20.3419 17.4789 20.3367 17.4987 20.3266L17.6126 20.5491L17.4987 20.3266C17.5184 20.3164 17.5356 20.3017 17.5487 20.2835C17.5619 20.2652 17.5705 20.2441 17.5739 20.2217C17.5773 20.1994 17.5754 20.1766 17.5684 20.1552L2.38675 20.5495M2.38675 20.5495C2.44199 20.5777 2.50314 20.5922 2.56511 20.5919H17.4346L2.38675 20.5495ZM18.9059 21.2634C18.9061 21.2632 18.9062 21.2631 18.9063 21.2629L18.7035 21.1167C18.8494 20.9154 18.945 20.682 18.9823 20.436L18.9059 21.2634ZM16.2653 16.2339L17.5683 20.155L16.1328 14.7094V14.4594H16.1326H13.9068C13.6845 14.4594 13.4715 14.548 13.3147 14.7054C13.1578 14.8629 13.0699 15.0762 13.0699 15.2984C13.0699 15.5206 13.1578 15.734 13.3147 15.8914C13.4715 16.0488 13.6845 16.1375 13.9068 16.1375H16.1325H16.1327C16.1618 16.1374 16.1903 16.1466 16.2141 16.1638C16.2379 16.1811 16.2558 16.2055 16.2652 16.2337L16.2653 16.2339ZM9.4079 18.4438C9.50435 18.5406 9.62201 18.6114 9.74999 18.6515V18.6913L10.0012 18.6901C10.2227 18.689 10.4347 18.5999 10.5907 18.4426C10.7467 18.2853 10.8341 18.0726 10.8341 17.851V12.1528C12.2011 11.95 13.4513 11.256 14.3497 10.1959C15.2968 9.07846 15.7808 7.63926 15.7023 6.17463C15.6239 4.71 14.989 3.3311 13.928 2.3219C12.867 1.31267 11.4607 0.75 9.99858 0.75C8.53646 0.75 7.13015 1.31267 6.06916 2.3219C5.00819 3.3311 4.37327 4.71 4.29484 6.17463C4.21641 7.63926 4.70041 9.07846 5.64743 10.1959C6.54582 11.256 7.79608 11.95 9.16312 12.1528V17.8508C9.16312 18.073 9.25106 18.2863 9.4079 18.4438ZM7.75214 3.09737C8.39371 2.667 9.14388 2.43009 9.91402 2.41357L9.9997 2.41367C11.0723 2.41488 12.1008 2.84295 12.8596 3.6043C13.6185 4.36568 14.0458 5.39825 14.0474 6.47563C14.0474 7.27925 13.81 8.06476 13.3653 8.73283C12.9206 9.401 12.2885 9.92165 11.5492 10.2291C10.8098 10.5365 9.99633 10.617 9.21148 10.4604C8.42663 10.3038 7.70556 9.91703 7.13948 9.34896C6.5734 8.78087 6.18775 8.05695 6.03146 7.26868C5.87516 6.48041 5.95527 5.66333 6.2616 4.9208C6.56794 4.17828 7.08669 3.54376 7.75214 3.09737Z" fill="#E96125" stroke="#E96125" stroke-width="0.5"/>
</svg>
