<svg width="20" height="20" viewBox="0 0 20 20" fill="none" xmlns="http://www.w3.org/2000/svg">
<path d="M0.899994 0.900024L3.26571 2.87145L0.899994 0.900024ZM3.26571 2.87145H18.6429L14.7 10.7572H4.84285L3.26571 2.87145ZM3.26571 2.87145L4.84285 10.7572L3.26571 2.87145ZM4.84285 10.7572L2.58261 13.0174C1.96161 13.6384 2.40124 14.7 3.27951 14.7H14.7L4.84285 10.7572ZM14.7 14.7C14.1772 14.7 13.6757 14.9077 13.306 15.2775C12.9363 15.6472 12.7286 16.1486 12.7286 16.6715C12.7286 17.1943 12.9363 17.6957 13.306 18.0655C13.6757 18.4352 14.1772 18.6429 14.7 18.6429C15.2228 18.6429 15.7243 18.4352 16.094 18.0655C16.4637 17.6957 16.6714 17.1943 16.6714 16.6715C16.6714 16.1486 16.4637 15.6472 16.094 15.2775C15.7243 14.9077 15.2228 14.7 14.7 14.7ZM6.81428 16.6715C6.81428 17.1943 6.60658 17.6957 6.23686 18.0655C5.86715 18.4352 5.3657 18.6429 4.84285 18.6429C4.32 18.6429 3.81856 18.4352 3.44884 18.0655C3.07912 17.6957 2.87142 17.1943 2.87142 16.6715C2.87142 16.1486 3.07912 15.6472 3.44884 15.2775C3.81856 14.9077 4.32 14.7 4.84285 14.7C5.3657 14.7 5.86715 14.9077 6.23686 15.2775C6.60658 15.6472 6.81428 16.1486 6.81428 16.6715Z" stroke="black" stroke-width="1.5" stroke-linecap="round" stroke-linejoin="round"/>
</svg>
