<svg width="26" height="26" viewBox="0 0 26 26" fill="none" xmlns="http://www.w3.org/2000/svg">
<path fill-rule="evenodd" clip-rule="evenodd" d="M19.4309 17.9029L25.6816 24.1534C26.1061 24.5726 26.1061 25.2624 25.6816 25.6816C25.2571 26.1061 24.5726 26.1061 24.1482 25.6816L17.8975 19.4363C16.0086 20.9857 13.5942 21.9142 10.9571 21.9142C4.90286 21.9142 0 17.0061 0 10.9571C0 4.90816 4.90286 0 10.9571 0C17.0061 0 21.9142 4.90816 21.9142 10.9571C21.9142 13.5942 20.9804 16.0138 19.4309 17.9029ZM2.17548 10.9571C2.17548 15.7963 6.11262 19.7334 10.9571 19.7334C15.7963 19.7334 19.7387 15.7963 19.7387 10.9571C19.7387 6.11794 15.7963 2.1755 10.9571 2.1755C6.11262 2.1755 2.17548 6.11794 2.17548 10.9571Z" fill="white"/>
</svg>
