<svg width="13" height="15" viewBox="0 0 13 15" fill="none" xmlns="http://www.w3.org/2000/svg">
<path d="M9.19734 14.625H3.80196C3.1583 14.6242 2.54123 14.3623 2.08611 13.8967C1.631 13.4311 1.37499 12.7999 1.37424 12.1415V2.89752H0.430792C0.375522 2.90106 0.320128 2.89298 0.268027 2.87378C0.215926 2.85459 0.168223 2.82467 0.127858 2.78589C0.0874942 2.74711 0.0553251 2.70027 0.033335 2.64828C0.0113449 2.5963 0 2.54025 0 2.4836C0 2.42695 0.0113449 2.37091 0.033335 2.31892C0.0553251 2.26693 0.0874942 2.2201 0.127858 2.18131C0.168223 2.14253 0.215926 2.11262 0.268027 2.09342C0.320128 2.07422 0.375522 2.06614 0.430792 2.06968H4.40906V1.10372C4.40939 0.8111 4.52317 0.530558 4.72546 0.323642C4.92774 0.116726 5.202 0.000334072 5.48807 0L7.51123 0C7.7973 0.000334072 8.07156 0.116726 8.27384 0.323642C8.47612 0.530558 8.5899 0.8111 8.59023 1.10372V2.06968H12.5692C12.6245 2.06614 12.6799 2.07422 12.732 2.09342C12.7841 2.11262 12.8318 2.14253 12.8721 2.18131C12.9125 2.2201 12.9447 2.26693 12.9667 2.31892C12.9887 2.37091 13 2.42695 13 2.4836C13 2.54025 12.9887 2.5963 12.9667 2.64828C12.9447 2.70027 12.9125 2.74711 12.8721 2.78589C12.8318 2.82467 12.7841 2.85459 12.732 2.87378C12.6799 2.89298 12.6245 2.90106 12.5692 2.89752H11.6245V12.1415C11.6238 12.7998 11.3678 13.4309 10.9128 13.8965C10.4578 14.3621 9.8409 14.624 9.19734 14.625ZM2.18354 2.89752V12.1415C2.184 12.5805 2.35468 13.0013 2.65812 13.3118C2.96156 13.6222 3.37298 13.7968 3.80213 13.7973H9.19734C9.62649 13.7968 10.0379 13.6222 10.3414 13.3118C10.6448 13.0013 10.8155 12.5805 10.8159 12.1415V2.89752H2.18354ZM5.48807 0.827837C5.41657 0.827932 5.34802 0.857029 5.29746 0.908747C5.2469 0.960465 5.21845 1.03058 5.21836 1.10372V2.06968H7.78164V1.10372C7.78155 1.03058 7.7531 0.960465 7.70254 0.908747C7.65198 0.857029 7.58343 0.827932 7.51193 0.827837H5.48807ZM8.18567 11.8649C8.07814 11.8649 7.97501 11.8212 7.89898 11.7434C7.82294 11.6656 7.78023 11.5601 7.78023 11.4502V5.24291C7.77676 5.18637 7.78466 5.12971 7.80343 5.07641C7.8222 5.02312 7.85145 4.97432 7.88936 4.93303C7.92727 4.89175 7.97306 4.85884 8.02388 4.83635C8.07471 4.81385 8.1295 4.80225 8.18488 4.80225C8.24026 4.80225 8.29505 4.81385 8.34587 4.83635C8.3967 4.85884 8.44248 4.89175 8.48039 4.93303C8.51831 4.97432 8.54755 5.02312 8.56632 5.07641C8.58509 5.12971 8.59299 5.18637 8.58953 5.24291V11.4516C8.58916 11.5611 8.54649 11.6659 8.47084 11.7433C8.39519 11.8208 8.29268 11.8645 8.18567 11.8649ZM4.81345 11.8649C4.70592 11.8649 4.60279 11.8212 4.52676 11.7434C4.45072 11.6656 4.40801 11.5601 4.40801 11.4502V5.24291C4.40454 5.18637 4.41244 5.12971 4.43121 5.07641C4.44998 5.02312 4.47922 4.97432 4.51714 4.93303C4.55505 4.89175 4.60083 4.85884 4.65166 4.83635C4.70248 4.81385 4.75728 4.80225 4.81265 4.80225C4.86803 4.80225 4.92282 4.81385 4.97365 4.83635C5.02448 4.85884 5.07026 4.89175 5.10817 4.93303C5.14609 4.97432 5.17533 5.02312 5.1941 5.07641C5.21287 5.12971 5.22077 5.18637 5.2173 5.24291V11.4516C5.21693 11.561 5.17429 11.6659 5.09868 11.7433C5.02307 11.8207 4.9206 11.8644 4.81362 11.8649H4.81345Z" fill="#626262"/>
</svg>
